<svg width="192" height="57" viewBox="0 0 192 57" fill="none" xmlns="http://www.w3.org/2000/svg">
<path d="M2 2.84961H26.45V9.14961H9.05V15.7496H24.35V22.0496H9.05V28.7996H26.6V35.0996H2V2.84961Z" fill="#FFCC00"/>
<path d="M28.8501 22.9499C28.8501 15.7499 34.2501 9.8999 41.9001 9.8999C46.5501 9.8999 49.5501 11.5499 51.8001 14.0999L47.4501 18.7499C45.8001 17.0999 44.3001 16.0499 41.7501 16.0499C38.3001 16.0499 35.7501 19.1999 35.7501 22.7999V22.9499C35.7501 26.6999 38.1501 29.8499 42.0501 29.8499C44.4501 29.8499 46.1001 28.7999 47.7501 27.1499L51.9501 31.3499C49.5501 34.0499 46.7001 35.8499 41.7501 35.8499C34.2501 35.8499 28.8501 30.1499 28.8501 22.9499Z" fill="#FFCC00"/>
<path d="M52.7002 22.9499C52.7002 15.7499 58.4002 9.8999 66.2002 9.8999C73.8502 9.8999 79.5502 15.5999 79.5502 22.7999V22.9499C79.5502 30.1499 73.8502 35.8499 66.0502 35.8499C58.4002 35.8499 52.7002 30.1499 52.7002 22.9499ZM72.6502 22.9499C72.6502 19.1999 69.9502 16.0499 66.0502 16.0499C62.0002 16.0499 59.6002 19.1999 59.6002 22.7999V22.9499C59.6002 26.5499 62.3002 29.8499 66.2002 29.8499C70.2502 29.6999 72.6502 26.6999 72.6502 22.9499Z" fill="#FFCC00"/>
<path d="M82.8501 10.3499H89.9001V13.9499C91.5501 11.6999 93.9501 9.8999 97.7001 9.8999C103.55 9.8999 108.95 14.3999 108.95 22.7999V22.9499C108.95 31.1999 103.55 35.8499 97.7001 35.8499C93.9501 35.8499 91.7001 34.1999 89.9001 32.0999V42.7499H82.8501V10.3499ZM101.9 22.9499C101.9 18.7499 99.0501 16.0499 95.9001 16.0499C92.6001 16.0499 89.9001 18.7499 89.9001 22.9499V23.0999C89.9001 27.2999 92.6001 29.9999 95.9001 29.9999C99.0501 29.6999 101.9 26.9999 101.9 22.9499Z" fill="#FFCC00"/>
<path d="M112.25 2.69971H119.3V13.9497C120.95 11.8497 123.05 9.89971 126.65 9.89971C132.05 9.89971 135.05 13.3497 135.05 19.1997V35.2497H128V21.4497C128 18.1497 126.35 16.3497 123.8 16.3497C121.1 16.3497 119.45 17.9997 119.45 21.4497V35.2497H112.4V2.69971H112.25Z" fill="#FFCC00"/>
<path d="M138.05 22.9499C138.05 15.7499 143.75 9.8999 151.55 9.8999C159.2 9.8999 164.9 15.5999 164.9 22.7999V22.9499C164.9 30.1499 159.2 35.8499 151.4 35.8499C143.75 35.8499 138.05 30.1499 138.05 22.9499ZM158 22.9499C158 19.1999 155.3 16.0499 151.4 16.0499C147.35 16.0499 144.95 19.1999 144.95 22.7999V22.9499C144.95 26.5499 147.65 29.8499 151.55 29.8499C155.6 29.6999 158 26.6999 158 22.9499Z" fill="#FFCC00"/>
<path d="M168.2 10.3495H175.25V13.7995C176.9 11.6995 179 9.74951 182.6 9.74951C188 9.74951 191 13.1995 191 19.0495V35.0995H183.95V21.2995C183.95 17.9995 182.3 16.1995 179.75 16.1995C177.05 16.1995 175.4 17.8495 175.4 21.2995V35.0995H168.35V10.3495H168.2Z" fill="#FFCC00"/>
<path d="M107.3 48.8995C106.1 48.5995 105.5 48.2995 105.5 47.5495C105.5 46.9495 106.25 46.6495 107 46.6495C107.6 46.6495 108.35 46.7995 108.8 47.0995C108.95 47.0995 109.1 47.2495 109.1 47.0995C109.25 47.0995 109.4 46.9495 109.4 46.7995L109.55 46.3495C109.7 46.1995 109.55 45.8995 109.4 45.7495C108.8 45.2995 107.9 44.9995 107 44.9995C105.2 44.9995 104 45.8995 104 47.2495C104 49.0495 105.5 49.4995 106.7 49.7995C107.9 50.0995 108.5 50.3995 108.5 51.1495C108.5 51.8995 107.6 52.1995 106.85 52.1995C106.1 52.1995 105.2 51.7495 104.75 51.2995C104.6 51.1495 104.45 51.1495 104.45 51.1495C104.3 51.1495 104.15 51.2995 104.15 51.2995L103.85 51.7495C103.7 51.8995 103.7 52.1995 103.85 52.3495C104.6 53.0995 105.8 53.5495 106.85 53.5495C108.65 53.5495 109.85 52.6495 109.85 51.1495C110 49.6495 108.5 49.1995 107.3 48.8995Z" fill="#777776"/>
<path d="M115.4 45.5993C115.4 45.4493 115.1 45.2993 114.95 45.2993H114.5C114.35 45.2993 114.2 45.4493 114.05 45.5993L110.6 53.0993C110.6 53.2493 110.6 53.3993 110.6 53.5493C110.75 53.6993 110.75 53.6993 111.05 53.6993H111.5C111.65 53.6993 111.8 53.5493 111.95 53.3993L112.85 51.4493H116.75L117.65 53.3993C117.65 53.5493 117.95 53.6993 118.1 53.6993H118.55C118.7 53.6993 118.85 53.5493 119 53.5493C119.15 53.3993 119.15 53.2493 119 53.0993L115.4 45.5993ZM113.45 50.3993L114.8 47.5493L116.15 50.3993H113.45Z" fill="#777776"/>
<path d="M121.1 45.4497H120.65C120.35 45.4497 120.2 45.5997 120.2 45.8997V53.3997C120.2 53.6997 120.35 53.8497 120.65 53.8497H121.1C121.4 53.8497 121.55 53.6997 121.55 53.3997V45.8997C121.55 45.5997 121.4 45.4497 121.1 45.4497Z" fill="#777776"/>
<path d="M130.55 45.4497H130.1C129.8 45.4497 129.65 45.5997 129.65 45.8997V51.4497L125.45 45.7497C125.3 45.5997 125.3 45.5997 125.15 45.5997H124.55C124.25 45.5997 124.1 45.7497 124.1 46.0497V53.5497C124.1 53.8497 124.25 53.9997 124.55 53.9997H125C125.3 53.9997 125.45 53.8497 125.45 53.5497V47.9997L129.65 53.6997C129.8 53.8497 129.8 53.8497 129.95 53.8497H130.55C130.85 53.8497 131 53.6997 131 53.3997V45.8997C131 45.5997 130.85 45.4497 130.55 45.4497Z" fill="#777776"/>
<path d="M138.35 45.4497H132.8C132.5 45.4497 132.35 45.5997 132.35 45.8997V46.3497C132.35 46.6497 132.5 46.7997 132.8 46.7997H134.9V53.3997C134.9 53.6997 135.05 53.8497 135.35 53.8497H135.8C136.1 53.8497 136.25 53.6997 136.25 53.3997V46.7997H138.35C138.65 46.7997 138.8 46.6497 138.8 46.3497V45.8997C138.8 45.5997 138.65 45.4497 138.35 45.4497Z" fill="#777776"/>
<path d="M141.65 49.4995H139.25C138.95 49.4995 138.8 49.6495 138.8 49.9495V50.2495C138.8 50.5495 138.95 50.6995 139.25 50.6995H141.65C141.95 50.6995 142.1 50.5495 142.1 50.2495V49.9495C142.1 49.6495 141.95 49.4995 141.65 49.4995Z" fill="#777776"/>
<path d="M151.1 49.1996H150.65H149.3C149 49.1996 148.85 49.3496 148.85 49.6496V50.0996C148.85 50.3996 149 50.5496 149.3 50.5496H150.2V51.8996C149.6 52.1996 149 52.4996 148.4 52.4996C146.75 52.4996 145.4 51.1496 145.4 49.6496C145.4 47.9996 146.75 46.7996 148.4 46.7996C149.15 46.7996 149.9 47.0996 150.5 47.5496C150.65 47.6996 150.65 47.6996 150.8 47.6996C150.95 47.6996 151.1 47.6996 151.1 47.5496L151.4 47.2496C151.55 47.0996 151.55 46.7996 151.4 46.6496C150.65 45.8996 149.6 45.5996 148.4 45.5996C146 45.5996 144.05 47.5496 144.05 49.7996C144.05 52.1996 146 53.9996 148.4 53.9996C149.45 53.9996 150.5 53.5496 151.4 52.9496C151.55 52.7996 151.55 52.7996 151.55 52.6496V49.9496C151.55 49.4996 151.25 49.1996 151.1 49.1996Z" fill="#777776"/>
<path d="M157.4 45.4497C155 45.4497 153.05 47.3997 153.05 49.6497C153.05 52.0497 155 53.8497 157.4 53.8497C159.8 53.8497 161.75 51.8997 161.75 49.6497C161.75 47.2497 159.8 45.4497 157.4 45.4497ZM157.4 52.4997C155.75 52.4997 154.4 51.1497 154.4 49.6497C154.4 47.9997 155.75 46.7997 157.4 46.7997C159.05 46.7997 160.4 48.1497 160.4 49.6497C160.4 51.1497 159.05 52.4997 157.4 52.4997Z" fill="#777776"/>
<path d="M168.95 49.3497C169.4 48.8997 169.7 48.4497 169.7 47.6997C169.7 46.1997 168.65 45.4497 166.85 45.4497H163.7C163.4 45.4497 163.25 45.5997 163.25 45.8997V53.3997C163.25 53.6997 163.4 53.8497 163.7 53.8497H166.85C168.8 53.8497 170 52.9497 170 51.2997C170 50.5497 169.55 49.7997 168.95 49.3497ZM166.85 48.7497H164.6V46.6497H166.85C167.45 46.6497 168.35 46.7997 168.35 47.6997C168.2 48.4497 167.75 48.7497 166.85 48.7497ZM164.6 50.0997H166.85C167.6 50.0997 168.65 50.2497 168.65 51.2997C168.65 52.3497 167.6 52.4997 166.85 52.4997H164.6V50.0997Z" fill="#777776"/>
<path d="M175.4 45.5993C175.4 45.4493 175.1 45.2993 174.95 45.2993H174.5C174.35 45.2993 174.2 45.4493 174.05 45.5993L170.6 53.0993C170.6 53.2493 170.6 53.3993 170.6 53.5493C170.75 53.6993 170.75 53.6993 171.05 53.6993H171.5C171.65 53.6993 171.8 53.5493 171.95 53.3993L172.85 51.4493H176.75L177.65 53.3993C177.65 53.5493 177.95 53.6993 178.1 53.6993H178.55C178.7 53.6993 178.85 53.5493 179 53.5493C179.15 53.3993 179.15 53.2493 179 53.0993L175.4 45.5993ZM173.45 50.3993L174.8 47.5493L176.15 50.3993H173.45Z" fill="#777776"/>
<path d="M181.1 45.4497H180.65C180.35 45.4497 180.2 45.5997 180.2 45.8997V53.3997C180.2 53.6997 180.35 53.8497 180.65 53.8497H181.1C181.4 53.8497 181.55 53.6997 181.55 53.3997V45.8997C181.55 45.5997 181.4 45.4497 181.1 45.4497Z" fill="#777776"/>
<path d="M190.55 45.4497H190.1C189.8 45.4497 189.65 45.5997 189.65 45.8997V51.4497L185.45 45.7497C185.3 45.5997 185.3 45.5997 185.15 45.5997H184.55C184.25 45.5997 184.1 45.7497 184.1 46.0497V53.5497C184.1 53.8497 184.25 53.9997 184.55 53.9997H185C185.3 53.9997 185.45 53.8497 185.45 53.5497V47.9997L189.65 53.6997C189.8 53.8497 189.8 53.8497 189.95 53.8497H190.55C190.85 53.8497 191 53.6997 191 53.3997V45.8997C191 45.5997 190.85 45.4497 190.55 45.4497Z" fill="#777776"/>
</svg>
