<svg width="281" height="90" viewBox="0 0 281 90" fill="none" xmlns="http://www.w3.org/2000/svg">
<rect x="1" y="0.5" width="279" height="89" stroke="white"/>
<path d="M218.306 43.5105C218.306 42.1219 218.306 40.7334 218.306 39.3449C213.591 39.3449 207.26 39.3449 202.541 39.3449V35.1429C202.541 33.4314 204.536 32.5636 206.112 32.5515H219.546C220.345 31.1589 221.139 29.7663 221.942 28.3818C216.68 28.3818 211.386 28.3818 206.112 28.3818C202.557 28.398 198.167 30.3557 198.131 34.1822V48.2049C198.167 52.0314 202.557 53.9851 206.112 54.0053C211.386 54.0053 216.66 54.0053 221.934 54.0053L219.583 49.8356H206.112C204.527 49.8356 202.541 48.9395 202.541 47.2442V43.5105C207.26 43.5105 213.591 43.5105 218.306 43.5105ZM123.406 69.8403H124.5L124.63 68.5406H128.647V69.8403H129.746L129.92 67.4709H129.105V63.1236H124.666V63.7897C124.666 65.3074 124.5 66.5708 124.026 67.4709H123.406V69.8403ZM125.372 67.4709C125.704 66.8049 125.903 65.8926 125.903 64.9078V64.1893H127.792V67.4709H125.372ZM131.014 68.5406H133.99C135.291 68.5406 136.106 67.9835 136.106 67.0713C136.106 66.3044 135.619 65.9048 134.922 65.7191C135.413 65.5132 135.846 65.1661 135.846 64.4799C135.846 63.6484 135.096 63.1236 133.957 63.1236H131.014V68.5406ZM132.308 67.5557V66.1994H133.73C134.436 66.1994 134.772 66.4658 134.772 66.8574C134.772 67.2772 134.436 67.5557 133.795 67.5557H132.308ZM132.308 65.3598V64.0762H133.674C134.261 64.0762 134.509 64.3426 134.509 64.6938C134.509 65.0813 134.209 65.3598 133.653 65.3598H132.308ZM140.046 68.6617C141.1 68.6617 141.85 68.262 142.393 67.6485L141.623 66.9986C141.165 67.4225 140.711 67.6485 140.07 67.6485C139.223 67.6485 138.558 67.1561 138.42 66.2721H142.632C142.64 66.2115 142.652 66.0057 142.652 65.9249C142.652 64.3669 141.728 63.0106 139.908 63.0106C138.266 63.0106 137.107 64.2821 137.107 65.8321C137.107 67.5234 138.388 68.6617 140.046 68.6617ZM138.408 65.4527C138.526 64.6131 139.093 64.0278 139.896 64.0278C140.763 64.0278 141.262 64.6535 141.351 65.4527H138.408ZM143.978 70.1794H145.291V67.6969C145.693 68.2015 146.289 68.6495 147.233 68.6495C148.603 68.6495 149.904 67.6364 149.904 65.8402C149.904 64.0278 148.591 63.0106 147.233 63.0106C146.313 63.0106 145.713 63.4627 145.291 64.0278V63.1236H143.978V70.1794ZM146.929 67.5758C146.041 67.5758 145.259 66.8897 145.259 65.8402C145.259 64.7867 146.041 64.0883 146.929 64.0883C147.821 64.0883 148.571 64.7745 148.571 65.82C148.571 66.9098 147.829 67.5758 146.929 67.5758ZM151.25 68.5406H152.564V66.3528H155.093V68.5406H156.407V63.1236H155.093V65.3195H152.564V63.1236H151.25V68.5406ZM158.056 68.5406H160.675C162.021 68.5406 162.856 67.8503 162.856 66.7322C162.856 65.5536 161.867 65.0208 160.578 65.0208H159.37V63.1236H158.056V68.5406ZM159.37 67.5355V65.9855H160.476C161.153 65.9855 161.542 66.2519 161.542 66.7322C161.542 67.257 161.161 67.5355 160.501 67.5355H159.37ZM163.723 68.5406H165.037V63.1236H163.723V68.5406ZM169.313 68.6617C170.367 68.6617 171.117 68.262 171.66 67.6485L170.89 66.9986C170.432 67.4225 169.978 67.6485 169.338 67.6485C168.49 67.6485 167.826 67.1561 167.688 66.2721H171.9C171.908 66.2115 171.92 66.0057 171.92 65.9249C171.92 64.3669 170.996 63.0106 169.171 63.0106C167.534 63.0106 166.374 64.2821 166.374 65.8321C166.374 67.5234 167.655 68.6617 169.313 68.6617ZM167.676 65.4527C167.793 64.6131 168.361 64.0278 169.163 64.0278C170.031 64.0278 170.529 64.6535 170.619 65.4527H167.676ZM177.729 68.5406H179.054V64.1893H180.899V63.1236H175.884V64.1893H177.729V68.5406ZM184.567 68.6617C185.621 68.6617 186.371 68.262 186.91 67.6485L186.14 66.9986C185.686 67.4225 185.228 67.6485 184.588 67.6485C183.744 67.6485 183.08 67.1561 182.938 66.2721H187.149C187.162 66.2115 187.174 66.0057 187.174 65.9249C187.174 64.3669 186.25 63.0106 184.425 63.0106C182.788 63.0106 181.624 64.2821 181.624 65.8321C181.624 67.5234 182.905 68.6617 184.567 68.6617ZM182.93 65.4527C183.047 64.6131 183.611 64.0278 184.417 64.0278C185.285 64.0278 185.783 64.6535 185.868 65.4527H182.93ZM187.997 68.5406H189.399L190.798 66.6434L192.208 68.5406H193.643L191.527 65.7594L193.554 63.1236H192.156L190.83 64.9078L189.509 63.1236H188.074L190.105 65.7917L187.997 68.5406ZM194.795 68.5406H196.108V66.3528H198.637V68.5406H199.951V63.1236H198.637V65.3195H196.108V63.1236H194.795V68.5406ZM204.325 68.6617C206.096 68.6617 207.397 67.3781 207.397 65.8402C207.397 64.274 206.104 63.0106 204.345 63.0106C202.59 63.0106 201.285 64.2942 201.285 65.8402C201.285 67.4023 202.578 68.6617 204.325 68.6617ZM204.345 67.5839C203.328 67.5839 202.598 66.7847 202.598 65.8402C202.598 64.8795 203.271 64.0964 204.325 64.0964C205.358 64.0964 206.084 64.8876 206.084 65.8402C206.084 66.7968 205.411 67.5839 204.345 67.5839ZM208.691 68.6011C209.959 68.6011 210.742 68.1167 210.742 64.1893H212.533V68.5406H213.847V63.1236H209.513C209.513 67.2449 209.059 67.5557 208.395 67.5557C208.31 67.5557 208.103 67.5355 208.018 67.5113L207.92 68.5285C208.115 68.5607 208.484 68.6011 208.691 68.6011ZM218.221 68.6617C219.992 68.6617 221.293 67.3781 221.293 65.8402C221.293 64.274 220 63.0106 218.241 63.0106C216.482 63.0106 215.18 64.2942 215.18 65.8402C215.18 67.4023 216.474 68.6617 218.221 68.6617ZM218.241 67.5839C217.224 67.5839 216.494 66.7847 216.494 65.8402C216.494 64.8795 217.167 64.0964 218.221 64.0964C219.25 64.0964 219.98 64.8876 219.98 65.8402C219.98 66.7968 219.307 67.5839 218.241 67.5839ZM222.627 68.5406H223.94V64.1893H226.689V63.1236H222.627V68.5406ZM227.731 68.5406H228.967L231.695 64.9279V68.5406H232.964V63.1236H231.727C230.815 64.3346 229.911 65.5455 229.012 66.7524V63.1236H227.731V68.5406ZM234.614 68.5406H235.85L238.574 64.9279V68.5406H239.847V63.1236H238.607C237.694 64.3346 236.795 65.5455 235.895 66.7524V63.1236H234.614V68.5406ZM184.093 54.0053C184.093 46.8527 184.093 39.7001 184.093 32.5515C187.644 32.5515 191.195 32.5515 194.75 32.5515C194.75 31.1589 194.75 29.7704 194.75 28.3818C186.221 28.3818 177.688 28.3818 169.159 28.3818C169.159 29.7704 169.159 31.1589 169.159 32.5515H179.679V54.0053C181.15 54.0053 182.622 54.0053 184.093 54.0053ZM239.45 54.0053C239.45 46.8527 239.45 39.7001 239.45 32.5515C243.005 32.5515 246.556 32.5515 250.107 32.5515C250.107 31.1589 250.107 29.7704 250.107 28.3818C241.578 28.3818 233.049 28.3818 224.516 28.3818C224.516 29.7704 224.516 31.1589 224.516 32.5515H235.035V54.0053C236.507 54.0053 237.978 54.0053 239.45 54.0053ZM165.122 32.5515C165.122 31.1589 165.122 29.7704 165.122 28.3818H148.409C145.089 28.3818 140.423 29.7139 140.423 33.5324V38.368C140.423 39.6153 141.821 40.6769 143.005 40.9594L161.04 45.3269C161.429 45.4238 161.883 45.7265 161.883 46.1463V47.2442C161.883 48.9395 160.002 49.8356 158.409 49.8356C152.414 49.8356 146.418 49.8356 140.423 49.8356C140.423 51.2282 140.423 52.6167 140.423 54.0053H158.409C161.895 53.9851 166.111 52.2454 166.111 48.443V44.1482C166.111 42.901 164.883 41.8152 163.667 41.5205L145.636 37.1854C145.222 37.0885 144.793 36.7696 144.793 36.3337V34.9048C144.793 33.2014 146.917 32.5515 148.409 32.5515C153.978 32.5515 159.552 32.5515 165.122 32.5515ZM133.321 43.5105C133.321 42.1219 133.321 40.7334 133.321 39.3449C128.607 39.3449 122.271 39.3449 117.556 39.3449V35.1429C117.556 33.4314 119.547 32.5636 121.128 32.5515H134.557C135.356 31.1589 136.154 29.7663 136.957 28.3818C131.695 28.3818 126.401 28.3818 121.128 28.3818C117.568 28.398 113.182 30.3557 113.142 34.1822V48.2049C113.182 52.0314 117.572 53.9851 121.128 54.0053C126.401 54.0053 131.675 54.0053 136.949 54.0053L134.598 49.8356H121.128C119.543 49.8356 117.556 48.9395 117.556 47.2442V43.5105C122.271 43.5105 128.607 43.5105 133.321 43.5105Z" fill="#4F4F4E"/>
<path fill-rule="evenodd" clip-rule="evenodd" d="M95.4639 75.3622V14C73.8093 14 52.1546 14 30.5 14C30.5 34.4527 30.5 54.9095 30.5 75.3622C52.1546 75.3622 73.8093 75.3622 95.4639 75.3622ZM46.6781 28.6443H79.2857L74.8956 36.2772H46.6781V28.6443ZM72.6661 40.9676H46.6781V48.6005H72.6661V40.9676ZM46.6781 53.085H74.9808L79.2857 60.718H46.6781V53.085ZM87.3809 21.6329H38.583V67.7293H87.3809V21.6329Z" fill="url(#paint0_linear_14_313)"/>
<defs>
<linearGradient id="paint0_linear_14_313" x1="111.723" y1="77.7914" x2="95.7402" y2="11.136" gradientUnits="userSpaceOnUse">
<stop stop-color="#096B50"/>
<stop offset="1" stop-color="#38AA3D"/>
</linearGradient>
</defs>
</svg>
