<svg width="212" height="52" viewBox="0 0 212 52" fill="none" xmlns="http://www.w3.org/2000/svg">
<g id="&#208;&#187;&#208;&#190;&#208;&#179;&#208;&#190;">
<g clip-path="url(#clip0)">
<path id="&#208;&#159;&#208;&#181;&#209;&#128;&#208;&#181;&#208;&#179;&#208;&#190;&#209;&#128;&#208;&#190;&#208;&#180;&#208;&#186;&#208;&#184; &#208;&#184; &#208;&#180;&#208;&#178;&#208;&#181;&#209;&#128;&#208;&#184;" d="M94.312 32.704V40H95.92V31.42H88.984V40H90.592V32.704H94.312ZM100.26 40.12C101.88 40.12 102.936 39.412 103.14 38.08H101.736C101.628 38.692 101.172 39.04 100.296 39.04C99.2039 39.04 98.6159 38.38 98.5679 37.18H103.164V36.76C103.164 34.516 101.76 33.592 100.2 33.592C98.4119 33.592 97.0799 34.888 97.0799 36.832V36.928C97.0799 38.896 98.3999 40.12 100.26 40.12ZM101.724 36.208H98.5919C98.7359 35.236 99.3239 34.648 100.2 34.648C101.112 34.648 101.64 35.116 101.724 36.208ZM104.261 33.724V42.148H105.713V39.016C106.049 39.628 106.757 40.12 107.765 40.12C109.385 40.12 110.549 38.896 110.549 36.88V36.784C110.549 34.768 109.337 33.592 107.765 33.592C106.841 33.592 106.061 34.132 105.713 34.732V33.724H104.261ZM107.405 38.968C106.349 38.968 105.665 38.308 105.665 36.904V36.808C105.665 35.404 106.385 34.732 107.393 34.732C108.341 34.732 109.061 35.416 109.061 36.808V36.904C109.061 38.26 108.473 38.968 107.405 38.968ZM114.415 40.12C116.035 40.12 117.091 39.412 117.295 38.08H115.891C115.783 38.692 115.327 39.04 114.451 39.04C113.359 39.04 112.771 38.38 112.723 37.18H117.319V36.76C117.319 34.516 115.915 33.592 114.355 33.592C112.567 33.592 111.235 34.888 111.235 36.832V36.928C111.235 38.896 112.555 40.12 114.415 40.12ZM115.879 36.208H112.747C112.891 35.236 113.479 34.648 114.355 34.648C115.267 34.648 115.795 35.116 115.879 36.208ZM119.868 34.804H122.604V33.724H118.416V40H119.868V34.804ZM126.192 38.992C125.088 38.992 124.452 38.2 124.452 36.904V36.808C124.452 35.512 125.1 34.732 126.192 34.732C127.284 34.732 127.92 35.524 127.92 36.82V36.904C127.92 38.2 127.284 38.992 126.192 38.992ZM126.18 40.12C128.028 40.12 129.408 38.848 129.408 36.892V36.796C129.408 34.876 128.016 33.592 126.192 33.592C124.344 33.592 122.964 34.888 122.964 36.832V36.928C122.964 38.848 124.32 40.12 126.18 40.12ZM130.519 33.724V42.148H131.971V39.016C132.307 39.628 133.015 40.12 134.023 40.12C135.643 40.12 136.807 38.896 136.807 36.88V36.784C136.807 34.768 135.595 33.592 134.023 33.592C133.099 33.592 132.319 34.132 131.971 34.732V33.724H130.519ZM133.663 38.968C132.607 38.968 131.923 38.308 131.923 36.904V36.808C131.923 35.404 132.643 34.732 133.651 34.732C134.599 34.732 135.319 35.416 135.319 36.808V36.904C135.319 38.26 134.731 38.968 133.663 38.968ZM140.721 38.992C139.617 38.992 138.981 38.2 138.981 36.904V36.808C138.981 35.512 139.629 34.732 140.721 34.732C141.813 34.732 142.449 35.524 142.449 36.82V36.904C142.449 38.2 141.813 38.992 140.721 38.992ZM140.709 40.12C142.557 40.12 143.937 38.848 143.937 36.892V36.796C143.937 34.876 142.545 33.592 140.721 33.592C138.873 33.592 137.493 34.888 137.493 36.832V36.928C137.493 38.848 138.849 40.12 140.709 40.12ZM146.553 37.336C146.637 36.568 146.673 35.56 146.709 34.792H148.617V38.92H146.181C146.373 38.536 146.469 38.044 146.553 37.336ZM145.401 41.524L145.449 40H149.685L149.733 41.524H150.969V38.92H150.057V33.724H145.449C145.449 34.552 145.389 36.172 145.257 37.24C145.149 38.152 145.005 38.764 144.561 38.92H144.165V41.524H145.401ZM153.274 36.928L155.626 40H157.306L154.666 36.628L157.102 33.724H155.518L153.274 36.508V33.724H151.822V40H153.274V36.928ZM158.102 40H159.554L162.266 35.56V40H163.706V33.724H162.266L159.554 38.164V33.724H158.102V40ZM167.886 40H169.338L172.05 35.56V40H173.49V33.724H172.05L169.338 38.164V33.724H167.886V40ZM179.349 37.336C179.433 36.568 179.469 35.56 179.505 34.792H181.413V38.92H178.977C179.169 38.536 179.265 38.044 179.349 37.336ZM178.197 41.524L178.245 40H182.481L182.529 41.524H183.765V38.92H182.853V33.724H178.245C178.245 34.552 178.185 36.172 178.053 37.24C177.945 38.152 177.801 38.764 177.357 38.92H176.961V41.524H178.197ZM184.618 33.724V40H187.378C188.878 40 189.718 39.352 189.718 38.152V38.116C189.718 37.3 189.19 36.88 188.326 36.7C189.094 36.52 189.442 35.992 189.442 35.32V35.296C189.442 34.144 188.458 33.724 187.15 33.724H184.618ZM186.07 34.696H186.898C187.582 34.696 187.954 34.864 187.954 35.44V35.464C187.954 36.04 187.654 36.292 186.946 36.292H186.07V34.696ZM186.07 37.264H187.15C187.87 37.264 188.23 37.552 188.23 38.14V38.164C188.23 38.776 187.858 39.028 187.102 39.028H186.07V37.264ZM193.612 40.12C195.232 40.12 196.288 39.412 196.492 38.08H195.088C194.98 38.692 194.524 39.04 193.648 39.04C192.556 39.04 191.968 38.38 191.92 37.18H196.516V36.76C196.516 34.516 195.112 33.592 193.552 33.592C191.764 33.592 190.432 34.888 190.432 36.832V36.928C190.432 38.896 191.752 40.12 193.612 40.12ZM195.076 36.208H191.944C192.088 35.236 192.676 34.648 193.552 34.648C194.464 34.648 194.992 35.116 195.076 36.208ZM197.612 33.724V42.148H199.064V39.016C199.4 39.628 200.108 40.12 201.116 40.12C202.736 40.12 203.9 38.896 203.9 36.88V36.784C203.9 34.768 202.688 33.592 201.116 33.592C200.192 33.592 199.412 34.132 199.064 34.732V33.724H197.612ZM200.756 38.968C199.7 38.968 199.016 38.308 199.016 36.904V36.808C199.016 35.404 199.736 34.732 200.744 34.732C201.692 34.732 202.412 35.416 202.412 36.808V36.904C202.412 38.26 201.824 38.968 200.756 38.968ZM205.006 40H206.458L209.17 35.56V40H210.61V33.724H209.17L206.458 38.164V33.724H205.006V40Z" fill="#5E5E5E"/>
<g id="&#208;&#187;&#208;&#190;&#208;&#179;&#208;&#190;_2">
<g id="logo">
<g clip-path="url(#clip1)">
<g id="Group">
<path id="Vector" d="M107.21 15.2275C107.21 16.2817 107.62 17.2188 108.44 18.0387L107.151 19.0929C106.566 18.5658 106.156 18.0387 105.922 17.5116C105.629 16.9259 105.512 16.1646 105.512 15.2861V0H107.151V15.2275H107.21Z" fill="#050303"/>
<path id="Vector_2" d="M121.091 17.863C119.568 18.5658 117.811 18.9172 115.878 18.9172C114.004 18.9172 112.657 18.6244 111.837 17.9802C111.017 17.3359 110.607 16.1646 110.607 14.5247C110.607 12.8262 111.076 11.6549 112.071 10.9521C112.481 10.6593 113.067 10.4835 113.711 10.3664C114.238 10.2493 114.941 10.1907 115.761 10.1907C116.932 10.1907 118.162 10.3078 119.451 10.6007C119.451 9.01937 119.158 7.96516 118.631 7.43805C118.162 6.96951 117.108 6.73524 115.585 6.73524C114.941 6.73524 114.297 6.79381 113.652 6.91095C112.95 7.02808 112.305 7.14521 111.837 7.37948L111.427 5.85673C112.071 5.68103 112.657 5.50533 113.301 5.44676C114.121 5.32963 114.941 5.21249 115.761 5.21249C117.694 5.21249 119.099 5.5639 119.861 6.2667C120.739 7.02808 121.149 8.31656 121.149 10.2493V17.863H121.091ZM119.451 12.0649C118.572 11.8306 117.401 11.7135 115.937 11.7135C114.59 11.7135 113.652 11.8306 113.243 12.1234C112.715 12.4748 112.481 13.2362 112.481 14.349C112.481 15.6375 112.715 16.4574 113.184 16.8088C113.594 17.1602 114.531 17.3359 115.937 17.3359C117.167 17.3359 118.338 17.1602 119.451 16.7502V12.0649V12.0649Z" fill="#050303"/>
<path id="Vector_3" d="M133.097 7.49662C131.867 7.02808 130.637 6.79381 129.407 6.79381C128.236 6.79381 127.357 6.91095 126.889 7.20378C126.362 7.55519 126.069 8.19943 126.069 9.1365C126.069 10.3078 127.123 11.0107 129.29 11.1278C132.511 11.3621 134.092 12.592 134.092 14.8761C134.092 16.3988 133.682 17.4531 132.863 18.0387C132.101 18.6244 130.813 18.9172 129.056 18.9172C128.353 18.9172 127.591 18.8587 126.713 18.7415C125.776 18.6244 125.015 18.4487 124.37 18.2144L124.897 16.6331C125.952 17.1017 127.357 17.3945 129.056 17.3945C130.227 17.3945 130.988 17.2774 131.457 16.9845C131.984 16.6331 132.277 15.9889 132.277 14.9932C132.277 14.2904 132.043 13.7633 131.633 13.4119C131.164 13.0605 130.344 12.8262 129.114 12.7091C127.474 12.592 126.244 12.2991 125.542 11.8306C124.722 11.3035 124.312 10.425 124.312 9.25364C124.312 7.78945 124.722 6.73524 125.6 6.091C126.42 5.50533 127.709 5.21249 129.407 5.21249C130.637 5.21249 132.101 5.44676 133.682 5.85673L133.097 7.49662Z" fill="#050303"/>
<path id="Vector_4" d="M145.455 7.49662C144.225 7.02808 142.995 6.79381 141.765 6.79381C140.593 6.79381 139.715 6.91095 139.246 7.20378C138.719 7.55519 138.426 8.19943 138.426 9.1365C138.426 10.3078 139.481 11.0107 141.648 11.1278C144.869 11.3621 146.45 12.592 146.45 14.8761C146.45 16.3988 146.04 17.4531 145.22 18.0387C144.459 18.6244 143.17 18.9172 141.413 18.9172C140.711 18.9172 139.949 18.8587 139.071 18.7415C138.134 18.6244 137.372 18.4487 136.728 18.2144L137.255 16.6331C138.309 17.1017 139.715 17.3945 141.413 17.3945C142.585 17.3945 143.346 17.2774 143.815 16.9845C144.342 16.6331 144.635 15.9889 144.635 14.9932C144.635 14.2904 144.4 13.7633 143.99 13.4119C143.522 13.0605 142.702 12.8262 141.472 12.7091C139.832 12.592 138.602 12.2991 137.899 11.8306C137.079 11.3035 136.669 10.425 136.669 9.25364C136.669 7.78945 137.079 6.73524 137.958 6.091C138.778 5.50533 140.008 5.21249 141.765 5.21249C142.995 5.21249 144.459 5.44676 146.04 5.85673L145.455 7.49662Z" fill="#050303"/>
<path id="Vector_5" d="M152.6 14.1733C152.6 16.2817 153.42 17.3359 155.001 17.3359C155.938 17.3359 156.758 17.2188 157.461 16.9259L157.871 18.3901C156.934 18.7415 155.997 18.8587 155.001 18.8587C153.478 18.8587 152.424 18.5658 151.838 17.9216C151.194 17.2773 150.901 15.9889 150.901 14.1733V7.08664H148.617V5.56389H150.901V2.8698L152.6 2.16699V5.56389H157.402V7.08664H152.6V14.1733V14.1733Z" fill="#050303"/>
<path id="Vector_6" d="M167.124 5.27106V7.02808L166.539 6.96951C166.304 6.96951 166.012 6.96951 165.836 6.96951C164.782 6.96951 163.962 7.08665 163.318 7.37948C162.556 7.67232 162.205 8.14086 162.205 8.66796V18.5658H160.506V5.5639H162.205V6.50097C162.498 6.14957 162.908 5.85673 163.493 5.62247C164.196 5.32963 164.957 5.21249 165.836 5.21249C166.304 5.21249 166.714 5.21249 167.124 5.27106Z" fill="#050303"/>
<path id="Vector_7" d="M170.521 17.4531C169.584 16.3988 169.057 14.5833 169.057 12.0063C169.057 9.42934 169.526 7.67232 170.521 6.61811C171.4 5.68103 172.864 5.21249 174.972 5.21249C177.081 5.21249 178.545 5.68103 179.424 6.61811C180.361 7.61375 180.888 9.42934 180.888 12.0063C180.888 14.5833 180.419 16.3988 179.424 17.4531C178.545 18.4487 177.022 18.9172 174.972 18.9172C172.864 18.9172 171.341 18.3901 170.521 17.4531ZM171.751 7.73089C171.166 8.43369 170.873 9.89788 170.873 12.0649C170.873 14.1147 171.166 15.5789 171.751 16.2817C172.337 16.9845 173.391 17.3359 174.914 17.3359C176.495 17.3359 177.549 16.9845 178.076 16.2817C178.662 15.5203 178.955 14.1147 178.955 12.0649C178.955 9.89788 178.662 8.49226 178.076 7.73089C177.549 7.08665 176.495 6.73524 174.914 6.73524C173.391 6.73524 172.337 7.08665 171.751 7.73089Z" fill="#050303"/>
<path id="Vector_8" d="M185.866 18.5658H184.226V6.26671C185.749 5.5639 187.506 5.21249 189.439 5.21249C191.371 5.21249 192.66 5.62247 193.421 6.44241C194.183 7.32092 194.592 8.90223 194.592 11.2449V18.5658H192.894V11.5378C192.894 9.60504 192.66 8.31656 192.133 7.67232C191.664 7.08665 190.668 6.79381 189.146 6.79381C187.916 6.79381 186.803 6.91095 185.866 7.20378V18.5658V18.5658Z" fill="#050303"/>
<path id="Vector_9" d="M209 17.5702C209 19.8543 208.414 21.4942 207.302 22.4313C206.306 23.3098 204.725 23.7198 202.558 23.7198C200.976 23.7198 199.571 23.4855 198.399 22.9584L198.868 21.3771C199.278 21.6113 199.922 21.787 200.683 21.9042C201.445 22.0213 202.031 22.0799 202.558 22.0799C204.197 22.0799 205.369 21.787 206.072 21.2014C206.892 20.5571 207.302 19.3858 207.302 17.7459C206.892 18.0387 206.482 18.273 205.955 18.4487C205.31 18.683 204.549 18.8001 203.729 18.8001C201.621 18.8001 200.156 18.3316 199.278 17.3359C198.341 16.2817 197.814 14.4661 197.814 11.8892C197.814 9.31221 198.282 7.55519 199.278 6.50098C200.156 5.56391 201.621 5.09537 203.729 5.09537C205.72 5.09537 207.477 5.44677 208.941 6.14958V17.5702H209ZM200.625 7.7309C200.039 8.4337 199.746 9.89788 199.746 12.0063C199.746 14.0562 200.039 15.4618 200.625 16.2232C201.211 16.926 202.265 17.2774 203.788 17.2774C204.783 17.2774 205.662 17.1017 206.306 16.8088C207.009 16.4574 207.36 15.9889 207.36 15.4032V7.32092C206.364 6.96952 205.193 6.79382 203.788 6.79382C202.206 6.79382 201.152 7.14522 200.625 7.7309Z" fill="#050303"/>
<path id="Vector_10" d="M99.8306 10.425H95.1452V8.96081H101.646V18.3316C101.002 18.5658 100.123 18.683 99.0106 18.8001C98.0736 18.8587 97.1365 18.9172 96.1994 18.9172C93.3296 18.9172 91.2798 18.273 90.0499 16.926C88.7028 15.4618 88 13.0019 88 9.42935C88 5.91531 88.7028 3.45548 90.0499 2.10844C91.2212 0.878523 93.3296 0.234283 96.1994 0.234283C97.9564 0.234283 99.6549 0.468553 101.236 0.937091L100.651 2.57697C99.4792 2.10844 98.015 1.93273 96.258 1.93273C95.0281 1.93273 94.091 1.9913 93.3882 2.167C92.5682 2.40127 91.924 2.75268 91.4555 3.22121C90.5184 4.27543 90.0499 6.32528 90.0499 9.48791C90.0499 12.6505 90.5184 14.759 91.4555 15.8717C92.2754 16.8674 93.9153 17.3359 96.258 17.3359C96.9022 17.3359 97.605 17.2774 98.3078 17.1602C98.9521 17.1017 99.4206 16.9845 99.8892 16.8674V10.425H99.8306Z" fill="#050303"/>
</g>
<path id="Vector_11" d="M25.5945 16.9168L34.4263 25.7487H43.3484L32.714 36.4731L12.4367 16.2859L20.7279 8.08491H57.1369L48.305 -0.746979H41.8163H17.0329L0 16.2859L10.364 26.6499L32.714 49L64.7071 16.9168H53.8925H25.5945Z" fill="#E01410"/>
</g>
</g>
<path id="&#208;&#159;&#208;&#181;&#209;&#128;&#208;&#181;&#208;&#179;&#208;&#190;&#209;&#128;&#208;&#190;&#208;&#180;&#208;&#186;&#208;&#184; &#208;&#184; &#208;&#180;&#208;&#178;&#208;&#181;&#209;&#128;&#208;&#184;_2" d="M94.312 32.704V40H95.92V31.42H88.984V40H90.592V32.704H94.312ZM100.26 40.12C101.88 40.12 102.936 39.412 103.14 38.08H101.736C101.628 38.692 101.172 39.04 100.296 39.04C99.2039 39.04 98.6159 38.38 98.5679 37.18H103.164V36.76C103.164 34.516 101.76 33.592 100.2 33.592C98.4119 33.592 97.0799 34.888 97.0799 36.832V36.928C97.0799 38.896 98.3999 40.12 100.26 40.12ZM101.724 36.208H98.5919C98.7359 35.236 99.3239 34.648 100.2 34.648C101.112 34.648 101.64 35.116 101.724 36.208ZM104.261 33.724V42.148H105.713V39.016C106.049 39.628 106.757 40.12 107.765 40.12C109.385 40.12 110.549 38.896 110.549 36.88V36.784C110.549 34.768 109.337 33.592 107.765 33.592C106.841 33.592 106.061 34.132 105.713 34.732V33.724H104.261ZM107.405 38.968C106.349 38.968 105.665 38.308 105.665 36.904V36.808C105.665 35.404 106.385 34.732 107.393 34.732C108.341 34.732 109.061 35.416 109.061 36.808V36.904C109.061 38.26 108.473 38.968 107.405 38.968ZM114.415 40.12C116.035 40.12 117.091 39.412 117.295 38.08H115.891C115.783 38.692 115.327 39.04 114.451 39.04C113.359 39.04 112.771 38.38 112.723 37.18H117.319V36.76C117.319 34.516 115.915 33.592 114.355 33.592C112.567 33.592 111.235 34.888 111.235 36.832V36.928C111.235 38.896 112.555 40.12 114.415 40.12ZM115.879 36.208H112.747C112.891 35.236 113.479 34.648 114.355 34.648C115.267 34.648 115.795 35.116 115.879 36.208ZM119.868 34.804H122.604V33.724H118.416V40H119.868V34.804ZM126.192 38.992C125.088 38.992 124.452 38.2 124.452 36.904V36.808C124.452 35.512 125.1 34.732 126.192 34.732C127.284 34.732 127.92 35.524 127.92 36.82V36.904C127.92 38.2 127.284 38.992 126.192 38.992ZM126.18 40.12C128.028 40.12 129.408 38.848 129.408 36.892V36.796C129.408 34.876 128.016 33.592 126.192 33.592C124.344 33.592 122.964 34.888 122.964 36.832V36.928C122.964 38.848 124.32 40.12 126.18 40.12ZM130.519 33.724V42.148H131.971V39.016C132.307 39.628 133.015 40.12 134.023 40.12C135.643 40.12 136.807 38.896 136.807 36.88V36.784C136.807 34.768 135.595 33.592 134.023 33.592C133.099 33.592 132.319 34.132 131.971 34.732V33.724H130.519ZM133.663 38.968C132.607 38.968 131.923 38.308 131.923 36.904V36.808C131.923 35.404 132.643 34.732 133.651 34.732C134.599 34.732 135.319 35.416 135.319 36.808V36.904C135.319 38.26 134.731 38.968 133.663 38.968ZM140.721 38.992C139.617 38.992 138.981 38.2 138.981 36.904V36.808C138.981 35.512 139.629 34.732 140.721 34.732C141.813 34.732 142.449 35.524 142.449 36.82V36.904C142.449 38.2 141.813 38.992 140.721 38.992ZM140.709 40.12C142.557 40.12 143.937 38.848 143.937 36.892V36.796C143.937 34.876 142.545 33.592 140.721 33.592C138.873 33.592 137.493 34.888 137.493 36.832V36.928C137.493 38.848 138.849 40.12 140.709 40.12ZM146.553 37.336C146.637 36.568 146.673 35.56 146.709 34.792H148.617V38.92H146.181C146.373 38.536 146.469 38.044 146.553 37.336ZM145.401 41.524L145.449 40H149.685L149.733 41.524H150.969V38.92H150.057V33.724H145.449C145.449 34.552 145.389 36.172 145.257 37.24C145.149 38.152 145.005 38.764 144.561 38.92H144.165V41.524H145.401ZM153.274 36.928L155.626 40H157.306L154.666 36.628L157.102 33.724H155.518L153.274 36.508V33.724H151.822V40H153.274V36.928ZM158.102 40H159.554L162.266 35.56V40H163.706V33.724H162.266L159.554 38.164V33.724H158.102V40ZM167.886 40H169.338L172.05 35.56V40H173.49V33.724H172.05L169.338 38.164V33.724H167.886V40ZM179.349 37.336C179.433 36.568 179.469 35.56 179.505 34.792H181.413V38.92H178.977C179.169 38.536 179.265 38.044 179.349 37.336ZM178.197 41.524L178.245 40H182.481L182.529 41.524H183.765V38.92H182.853V33.724H178.245C178.245 34.552 178.185 36.172 178.053 37.24C177.945 38.152 177.801 38.764 177.357 38.92H176.961V41.524H178.197ZM184.618 33.724V40H187.378C188.878 40 189.718 39.352 189.718 38.152V38.116C189.718 37.3 189.19 36.88 188.326 36.7C189.094 36.52 189.442 35.992 189.442 35.32V35.296C189.442 34.144 188.458 33.724 187.15 33.724H184.618ZM186.07 34.696H186.898C187.582 34.696 187.954 34.864 187.954 35.44V35.464C187.954 36.04 187.654 36.292 186.946 36.292H186.07V34.696ZM186.07 37.264H187.15C187.87 37.264 188.23 37.552 188.23 38.14V38.164C188.23 38.776 187.858 39.028 187.102 39.028H186.07V37.264ZM193.612 40.12C195.232 40.12 196.288 39.412 196.492 38.08H195.088C194.98 38.692 194.524 39.04 193.648 39.04C192.556 39.04 191.968 38.38 191.92 37.18H196.516V36.76C196.516 34.516 195.112 33.592 193.552 33.592C191.764 33.592 190.432 34.888 190.432 36.832V36.928C190.432 38.896 191.752 40.12 193.612 40.12ZM195.076 36.208H191.944C192.088 35.236 192.676 34.648 193.552 34.648C194.464 34.648 194.992 35.116 195.076 36.208ZM197.612 33.724V42.148H199.064V39.016C199.4 39.628 200.108 40.12 201.116 40.12C202.736 40.12 203.9 38.896 203.9 36.88V36.784C203.9 34.768 202.688 33.592 201.116 33.592C200.192 33.592 199.412 34.132 199.064 34.732V33.724H197.612ZM200.756 38.968C199.7 38.968 199.016 38.308 199.016 36.904V36.808C199.016 35.404 199.736 34.732 200.744 34.732C201.692 34.732 202.412 35.416 202.412 36.808V36.904C202.412 38.26 201.824 38.968 200.756 38.968ZM205.006 40H206.458L209.17 35.56V40H210.61V33.724H209.17L206.458 38.164V33.724H205.006V40Z" fill="#5E5E5E"/>
</g>
</g>
</g>
<defs>
<clipPath id="clip0">
<rect width="212" height="52" fill="white"/>
</clipPath>
<clipPath id="clip1">
<rect y="-3" width="268.201" height="52" fill="white"/>
</clipPath>
</defs>
</svg>
