<svg width="52" height="63" viewBox="0 0 52 63" fill="none" xmlns="http://www.w3.org/2000/svg">
<g clip-path="url(#clip0_14_269)">
<path d="M36.5221 43.9538C36.2971 45.9888 34.4051 48.0498 32.1311 48.0898C26.3601 48.1938 20.5871 48.1248 14.6211 48.1248C14.6211 44.9238 14.5921 41.9138 14.6751 38.9068C14.6821 38.6568 15.4481 38.2248 15.8661 38.2198C20.5221 38.1598 25.1791 38.1568 29.8361 38.1648C30.8231 38.1658 31.8251 38.1738 32.7931 38.3418C34.8351 38.6958 36.8951 40.5988 36.5221 43.9538ZM45.3361 30.0628C44.0061 28.5938 42.3101 27.4558 40.7511 26.1388C42.4321 21.4338 42.5051 16.7328 40.6001 11.9008C37.8631 4.9618 30.6071 -0.124198 22.6441 0.00180222C18.7221 0.0648022 14.7971 0.0148022 10.8731 0.0158022C7.85408 0.0168022 4.83408 0.0198022 1.81508 0.0128022C1.10108 0.0108022 0.55308 0.0698023 0.60208 1.0468C0.85108 5.9608 3.27608 9.5608 7.30308 12.1698C9.56508 13.6348 12.1381 14.1408 14.7891 14.1968C17.5911 14.2548 20.3971 14.1668 23.1991 14.2358C25.8551 14.3018 27.7541 16.2678 27.9591 18.6998C28.2101 21.6668 25.6821 24.1258 22.7411 24.0798C15.8851 23.9738 9.02408 24.0718 2.16608 24.0258C0.94508 24.0168 0.49308 24.3738 0.50008 25.6328C0.54408 33.0508 0.52008 40.4708 0.53008 47.8898C0.53408 50.9748 1.25008 53.8768 3.15508 56.3438C5.73208 59.6838 9.00508 61.9368 13.3861 61.9818C19.7681 62.0458 26.1521 62.0788 32.5321 61.9588C34.3881 61.9248 36.3451 61.6048 38.0651 60.9298C44.1051 58.5588 48.2121 54.3138 49.9021 47.9138C51.6981 41.1078 49.9681 35.1798 45.3361 30.0628Z" fill="black"/>
</g>
<defs>
<clipPath id="clip0_14_269">
<rect width="51" height="63" fill="white" transform="translate(0.5)"/>
</clipPath>
</defs>
</svg>
