<?xml version="1.0" encoding="UTF-8"?>
<svg xmlns="http://www.w3.org/2000/svg" xmlns:xlink="http://www.w3.org/1999/xlink" width="62pt" height="66pt" viewBox="0 0 62 66" version="1.1">
<g id="surface1">
<path style=" stroke:none;fill-rule:nonzero;fill:rgb(15.294118%,21.568627%,32.156863%);fill-opacity:1;" d="M -0.0859375 34.785156 L 1.21875 34.597656 C 1.296875 35.25 1.457031 35.726562 1.695312 36.035156 C 1.9375 36.339844 2.261719 36.492188 2.667969 36.492188 C 3.101562 36.492188 3.425781 36.355469 3.644531 36.085938 C 3.863281 35.8125 3.972656 35.496094 3.972656 35.128906 C 3.972656 34.898438 3.925781 34.699219 3.835938 34.535156 C 3.742188 34.371094 3.582031 34.226562 3.351562 34.105469 C 3.195312 34.023438 2.839844 33.882812 2.277344 33.675781 C 1.558594 33.410156 1.054688 33.082031 0.765625 32.699219 C 0.359375 32.152344 0.152344 31.492188 0.152344 30.707031 C 0.152344 30.207031 0.25 29.734375 0.441406 29.296875 C 0.632812 28.859375 0.910156 28.523438 1.269531 28.296875 C 1.632812 28.066406 2.066406 27.953125 2.578125 27.953125 C 3.410156 27.953125 4.039062 28.222656 4.460938 28.765625 C 4.882812 29.3125 5.101562 30.039062 5.125 30.945312 L 3.78125 31.03125 C 3.726562 30.523438 3.601562 30.160156 3.414062 29.9375 C 3.226562 29.714844 2.941406 29.601562 2.566406 29.601562 C 2.175781 29.601562 1.871094 29.722656 1.648438 29.960938 C 1.507812 30.113281 1.4375 30.316406 1.4375 30.574219 C 1.4375 30.808594 1.503906 31.007812 1.636719 31.175781 C 1.804688 31.386719 2.214844 31.605469 2.867188 31.835938 C 3.519531 32.0625 4.003906 32.300781 4.316406 32.546875 C 4.628906 32.789062 4.871094 33.125 5.050781 33.550781 C 5.226562 33.972656 5.3125 34.5 5.3125 35.125 C 5.3125 35.691406 5.207031 36.21875 4.996094 36.714844 C 4.785156 37.207031 4.488281 37.574219 4.101562 37.816406 C 3.714844 38.054688 3.230469 38.175781 2.65625 38.175781 C 1.816406 38.175781 1.171875 37.886719 0.71875 37.3125 C 0.269531 36.734375 0 35.890625 -0.0859375 34.785156 Z M 0.355469 38.992188 C 3.09375 53.265625 15.800781 64.0625 31.066406 64.0625 C 46.332031 64.0625 59.035156 53.269531 61.777344 39 L 61.777344 38.992188 L 52.09375 38.992188 C 49.542969 48.082031 41.09375 54.753906 31.066406 54.753906 C 21.039062 54.753906 12.59375 48.082031 10.039062 38.992188 Z M 31.066406 14.789062 C 23.023438 14.789062 16.167969 19.796875 13.527344 26.828125 L 20.089844 26.828125 C 22.3125 23.128906 26.394531 20.652344 31.066406 20.652344 C 35.738281 20.652344 39.824219 23.128906 42.046875 26.828125 L 48.609375 26.828125 C 45.96875 19.796875 39.113281 14.789062 31.066406 14.789062 Z M 48.835938 38.992188 C 46.382812 46.355469 39.355469 51.675781 31.066406 51.675781 C 22.78125 51.675781 15.753906 46.355469 13.300781 38.992188 L 19.726562 38.992188 C 21.84375 43.042969 26.128906 45.8125 31.066406 45.8125 C 36.007812 45.8125 40.289062 43.042969 42.410156 38.992188 Z M 31.066406 2.402344 C 46.105469 2.402344 58.65625 12.875 61.648438 26.828125 L 51.902344 26.828125 C 49.140625 18.070312 40.855469 11.710938 31.066406 11.710938 C 21.277344 11.710938 12.996094 18.070312 10.230469 26.828125 L 0.488281 26.828125 C 3.476562 12.875 16.03125 2.402344 31.066406 2.402344 Z M 45.566406 38 L 45.566406 29.792969 L 43.59375 29.792969 L 43.59375 28.121094 L 48.875 28.121094 L 48.875 29.792969 L 46.90625 29.792969 L 46.90625 38 Z M 37.542969 34.785156 L 38.847656 34.597656 C 38.925781 35.25 39.085938 35.726562 39.324219 36.035156 C 39.566406 36.339844 39.890625 36.492188 40.296875 36.492188 C 40.730469 36.492188 41.054688 36.355469 41.273438 36.085938 C 41.492188 35.8125 41.601562 35.496094 41.601562 35.128906 C 41.601562 34.898438 41.554688 34.699219 41.464844 34.535156 C 41.371094 34.371094 41.210938 34.226562 40.980469 34.105469 C 40.824219 34.023438 40.464844 33.882812 39.90625 33.675781 C 39.1875 33.410156 38.683594 33.082031 38.394531 32.699219 C 37.988281 32.152344 37.78125 31.492188 37.78125 30.707031 C 37.78125 30.207031 37.878906 29.734375 38.070312 29.296875 C 38.261719 28.859375 38.539062 28.523438 38.898438 28.296875 C 39.261719 28.066406 39.695312 27.953125 40.207031 27.953125 C 41.039062 27.953125 41.667969 28.222656 42.089844 28.765625 C 42.511719 29.3125 42.730469 30.039062 42.753906 30.945312 L 41.410156 31.03125 C 41.355469 30.523438 41.230469 30.160156 41.042969 29.9375 C 40.855469 29.714844 40.570312 29.601562 40.191406 29.601562 C 39.804688 29.601562 39.5 29.722656 39.277344 29.960938 C 39.136719 30.113281 39.066406 30.316406 39.066406 30.574219 C 39.066406 30.808594 39.132812 31.007812 39.265625 31.175781 C 39.433594 31.386719 39.84375 31.605469 40.496094 31.835938 C 41.148438 32.0625 41.632812 32.300781 41.945312 32.546875 C 42.257812 32.789062 42.5 33.125 42.675781 33.550781 C 42.855469 33.972656 42.941406 34.5 42.941406 35.125 C 42.941406 35.691406 42.835938 36.21875 42.625 36.714844 C 42.414062 37.207031 42.117188 37.574219 41.730469 37.816406 C 41.34375 38.054688 40.859375 38.175781 40.285156 38.175781 C 39.445312 38.175781 38.800781 37.886719 38.347656 37.3125 C 37.898438 36.734375 37.628906 35.890625 37.542969 34.785156 Z M 34.703125 34.09375 L 33.789062 30.425781 L 32.890625 34.09375 Z M 37.171875 38 L 35.710938 38 L 35.132812 35.757812 L 32.476562 35.757812 L 31.929688 38 L 30.507812 38 L 33.09375 28.121094 L 34.511719 28.121094 Z M 25.550781 38 L 25.550781 28.203125 L 26.890625 28.203125 L 26.890625 36.335938 L 30.226562 36.335938 L 30.226562 38 Z M 20.667969 29.792969 L 20.667969 32.597656 L 21.402344 32.597656 C 21.929688 32.597656 22.285156 32.542969 22.460938 32.441406 C 22.640625 32.335938 22.78125 32.175781 22.878906 31.957031 C 22.980469 31.734375 23.03125 31.480469 23.03125 31.1875 C 23.03125 30.828125 22.960938 30.53125 22.820312 30.296875 C 22.675781 30.0625 22.496094 29.917969 22.28125 29.859375 C 22.121094 29.8125 21.796875 29.792969 21.316406 29.792969 Z M 19.328125 38 L 19.328125 28.121094 L 21.480469 28.121094 C 22.292969 28.121094 22.824219 28.171875 23.074219 28.269531 C 23.453125 28.417969 23.773438 28.738281 24.027344 29.234375 C 24.285156 29.734375 24.414062 30.375 24.414062 31.160156 C 24.414062 31.765625 24.339844 32.277344 24.191406 32.691406 C 24.042969 33.105469 23.855469 33.429688 23.628906 33.664062 C 23.398438 33.898438 23.167969 34.058594 22.933594 34.132812 C 22.613281 34.226562 22.148438 34.273438 21.542969 34.273438 L 20.667969 34.273438 L 20.667969 38 Z M 13.21875 33.054688 C 13.21875 34.171875 13.394531 35.023438 13.742188 35.597656 C 14.085938 36.175781 14.527344 36.464844 15.0625 36.464844 C 15.597656 36.464844 16.035156 36.179688 16.378906 35.605469 C 16.722656 35.03125 16.894531 34.171875 16.894531 33.027344 C 16.894531 31.894531 16.726562 31.050781 16.394531 30.492188 C 16.058594 29.9375 15.617188 29.65625 15.0625 29.65625 C 14.511719 29.65625 14.066406 29.9375 13.726562 30.503906 C 13.386719 31.066406 13.21875 31.917969 13.21875 33.054688 Z M 11.835938 33.121094 C 11.835938 32.117188 11.9375 31.269531 12.140625 30.585938 C 12.292969 30.085938 12.5 29.632812 12.761719 29.234375 C 13.019531 28.832031 13.308594 28.535156 13.617188 28.34375 C 14.03125 28.082031 14.507812 27.953125 15.050781 27.953125 C 16.027344 27.953125 16.8125 28.402344 17.398438 29.304688 C 17.984375 30.210938 18.28125 31.464844 18.28125 33.074219 C 18.28125 34.671875 17.988281 35.917969 17.40625 36.820312 C 16.824219 37.71875 16.042969 38.171875 15.066406 38.171875 C 14.082031 38.171875 13.296875 37.722656 12.710938 36.824219 C 12.128906 35.929688 11.835938 34.695312 11.835938 33.121094 Z M 6.476562 38 L 6.476562 28.203125 L 7.820312 28.203125 L 7.820312 36.335938 L 11.152344 36.335938 L 11.152344 38 Z M 6.476562 38 "/>
</g>
</svg>
