<?xml version="1.0" encoding="utf-8"?>
<!-- Generator: Adobe Illustrator 24.1.3, SVG Export Plug-In . SVG Version: 6.00 Build 0)  -->
<svg version="1.1" id="Слой_1" xmlns="http://www.w3.org/2000/svg" xmlns:xlink="http://www.w3.org/1999/xlink" x="0px" y="0px"
	 viewBox="0 0 133 29" style="enable-background:new 0 0 133 29;" xml:space="preserve">
<style type="text/css">
	.st0{fill:#0D1677;}
</style>
<g>
	<path class="st0" d="M51.03,20.49c0,0.18-0.06,0.29-0.17,0.35c-0.21,0.06-0.37,0.11-0.49,0.15c-0.75,0.22-1.44,0.5-2.07,0.85
		c-0.16,0.07-0.41,0.22-0.78,0.44c-0.21,0.12-0.37,0.19-0.49,0.19c-0.12,0-0.2-0.05-0.24-0.16c-0.05-0.11-0.07-0.27-0.07-0.5
		l0.11-1.06c0-0.21,0-0.37,0-0.46c0-0.19-0.08-0.29-0.23-0.29c-0.17,0-0.38,0.12-0.63,0.35c-0.86,0.74-1.5,1.21-1.9,1.43
		c-0.83,0.46-1.73,0.7-2.7,0.7c-1.75,0-3.04-0.62-3.88-1.84c-0.63-0.94-0.95-2.05-0.95-3.31l0.17-7.2c0-0.77-0.14-1.29-0.43-1.56
		c-0.21-0.19-0.59-0.29-1.12-0.29l-0.43-0.03c-0.23,0-0.34-0.12-0.34-0.37c0-0.19,0.08-0.31,0.24-0.36
		c0.16-0.05,0.38-0.07,0.65-0.07h1.76h1.55c0.25,0,0.4,0.04,0.46,0.12c0.06,0.08,0.09,0.31,0.09,0.69v0.98l-0.17,7.63
		c0,1.71,0.5,2.88,1.49,3.52c0.58,0.37,1.32,0.55,2.21,0.55c0.98,0,1.77-0.18,2.39-0.55c1-0.6,1.5-1.63,1.5-3.11v-7.14
		c0-0.83-0.17-1.37-0.49-1.62c-0.19-0.15-0.55-0.23-1.06-0.23l-0.43-0.03c-0.23,0-0.34-0.12-0.34-0.37c0-0.19,0.08-0.31,0.24-0.36
		c0.16-0.05,0.38-0.07,0.65-0.07h1.75h1.55c0.25,0,0.4,0.04,0.46,0.12c0.06,0.08,0.09,0.28,0.09,0.6v1.06v9.58c0,0.23,0,0.46,0,0.69
		c0.08,0.46,0.36,0.69,0.86,0.69h0.8C50.89,20.17,51.03,20.28,51.03,20.49L51.03,20.49z"/>
	<path class="st0" d="M73.26,3.09c0,0.52-0.13,0.92-0.39,1.19c-0.26,0.28-0.61,0.42-1.05,0.42c-0.48,0-0.84-0.17-1.09-0.52
		c-0.25-0.35-0.37-0.75-0.37-1.21c0-0.42,0.13-0.79,0.37-1.09c0.25-0.31,0.6-0.46,1.06-0.46c0.44,0,0.79,0.15,1.06,0.46
		C73.12,2.19,73.26,2.6,73.26,3.09L73.26,3.09z"/>
	<path class="st0" d="M75.28,21.13c-0.1-0.06-0.31-0.1-0.62-0.1c-0.71,0-1.17-0.19-1.38-0.57c-0.11-0.21-0.17-0.64-0.17-1.27V8.02
		c0-0.2,0-0.45,0-0.78c0-0.31-0.11-0.46-0.34-0.46c-0.12,0-0.25,0.07-0.43,0.2c-0.51,0.52-0.87,0.85-1.08,1.01
		c-0.46,0.33-1.22,0.72-2.3,1.18c-0.24,0.12-0.37,0.25-0.37,0.4c0,0.19,0.12,0.29,0.37,0.29h0.31c0.52,0,0.88,0.08,1.09,0.24
		c0.21,0.16,0.32,0.6,0.32,1.31v7.78c0,0.82-0.16,1.36-0.49,1.61c-0.19,0.15-0.91,0.25-1.72,0.25c-0.75,0-1.83-0.17-2.02-0.48
		c-0.18-0.3-0.27-0.77-0.27-1.4v-6.77c0-2.28-0.72-3.89-2.16-4.83c-0.82-0.54-1.84-0.81-3.05-0.81c-0.88,0-1.72,0.21-2.5,0.62
		c-0.46,0.24-0.94,0.58-1.44,1.03c-0.81,0.72-1.22,1.09-1.24,1.09c-0.15,0-0.23-0.13-0.23-0.4V8.01l0.09-1.03
		c0-0.13-0.09-0.2-0.26-0.2c-0.13,0-0.27,0.07-0.41,0.2c-0.56,0.56-0.88,0.86-0.96,0.92c-0.49,0.36-1.32,0.78-2.5,1.26
		c-0.26,0.12-0.38,0.25-0.38,0.4c0,0.19,0.12,0.29,0.37,0.29h0.32c0.52,0,0.88,0.08,1.09,0.24c0.21,0.16,0.32,0.6,0.32,1.31v7.78
		c0,0.82-0.16,1.36-0.49,1.61c-0.19,0.15-0.55,0.23-1.07,0.23h-0.43c-0.23,0-0.35,0.12-0.35,0.37c0,0.21,0.07,0.34,0.2,0.37
		c0.13,0.04,0.36,0.06,0.69,0.06c0.06,0,0.44-0.02,1.14-0.06c0.7-0.04,1.2-0.06,1.51-0.06c0.06,0,0.44,0.02,1.15,0.06
		c0.71,0.04,1.21,0.06,1.49,0.06c0.27,0,0.48-0.02,0.65-0.07C57.92,21.72,58,21.6,58,21.41c0-0.25-0.12-0.37-0.35-0.37h-0.43
		c-0.52,0-0.87-0.08-1.06-0.23c-0.33-0.25-0.49-0.79-0.49-1.62v-7.52c0-0.99,0.51-1.83,1.52-2.52c0.88-0.6,1.81-0.9,2.79-0.9
		c1.67,0,2.79,0.65,3.36,1.94c0.29,0.64,0.43,1.51,0.43,2.63v6.37c0,0.67-0.08,1.13-0.23,1.36c-0.21,0.33-0.65,0.49-1.32,0.49
		c-0.23,0-0.42,0.02-0.56,0.07c-0.14,0.05-0.21,0.15-0.21,0.32c0,0.21,0.07,0.33,0.2,0.36c0.13,0.04,0.36,0.06,0.69,0.06
		c0.06,0,0.44-0.02,1.14-0.06c0.7-0.04,1.2-0.06,1.51-0.06c0.92,0.01,2.99,0.13,3.57,0.14c0.74,0.01,2.6-0.14,3.35-0.14
		c0.06,0,0.44,0.02,1.15,0.06c0.71,0.04,1.21,0.06,1.49,0.06c0.27,0,0.49-0.02,0.65-0.07c0.17-0.05,0.24-0.17,0.24-0.35
		C75.44,21.3,75.39,21.2,75.28,21.13z"/>
	<path class="st0" d="M90.1,8.86c-1.31-1.35-3.03-2.03-5.16-2.03c-0.73,0-1.38,0.09-1.94,0.27c-0.56,0.18-1.14,0.5-1.74,0.96
		c-0.4,0.31-0.76,0.59-1.06,0.86c-0.19,0.17-0.33,0.26-0.4,0.26c-0.08,0-0.14-0.09-0.2-0.26V7.49c0-0.17,0-0.4,0-0.69
		c0-0.31-0.09-0.46-0.26-0.46c-0.08,0-0.17,0.03-0.3,0.09c-0.12,0.06-0.37,0.19-0.73,0.4C77.85,7.06,77.42,7.24,77,7.38
		c-0.17,0.06-0.56,0.15-1.15,0.29c-0.36,0.08-0.54,0.23-0.54,0.46c0,0.15,0.06,0.24,0.17,0.27c0.12,0.03,0.26,0.04,0.43,0.04h0.49
		c0.29,0,0.49,0.1,0.6,0.29c0.11,0.19,0.17,0.61,0.17,1.27v16.3c0,0.55-0.07,0.96-0.2,1.21c-0.23,0.42-0.69,0.63-1.38,0.63
		c-0.5,0-0.75,0.13-0.75,0.37c0,0.17,0.05,0.3,0.14,0.37c0.1,0.08,0.35,0.11,0.78,0.11c0.32,0,0.8-0.02,1.44-0.06
		c0.63-0.04,1.11-0.06,1.44-0.06c0.06,0,0.48,0.02,1.27,0.06C80.7,28.98,81.26,29,81.58,29c0.61,0,0.92-0.16,0.92-0.49
		c0-0.19-0.12-0.3-0.37-0.33c-0.25-0.03-0.62-0.06-1.12-0.1c-0.5-0.04-0.88-0.25-1.15-0.63c-0.17-0.25-0.26-0.63-0.26-1.15v-4.23
		c0-0.32,0.07-0.49,0.2-0.49c0.1,0,0.2,0.03,0.32,0.09c0.54,0.23,1.12,0.42,1.74,0.56c0.62,0.14,1.32,0.22,2.08,0.22
		c2.4,0,4.35-0.77,5.87-2.3c1.51-1.53,2.27-3.55,2.27-6.04C92.07,11.96,91.42,10.21,90.1,8.86z M87.91,19.74
		c-1.08,1.23-2.42,1.84-4.03,1.84c-1.84,0-3.09-0.51-3.74-1.52c-0.37-0.56-0.55-1.37-0.55-2.44V11.6c0-1.05,0.5-1.9,1.5-2.53
		c0.84-0.54,1.8-0.8,2.87-0.8c1.49,0,2.76,0.54,3.79,1.61c1.17,1.21,1.75,2.85,1.75,4.92C89.52,16.87,88.98,18.51,87.91,19.74z"/>
	<path class="st0" d="M103.13,8.85c0,0.36-0.13,0.67-0.4,0.92c-0.27,0.25-0.59,0.37-0.98,0.37c-0.23,0-0.43-0.05-0.59-0.16
		c-0.16-0.11-0.33-0.24-0.49-0.4c-0.16-0.16-0.3-0.32-0.42-0.47c-0.17-0.15-0.39-0.23-0.66-0.23c-0.52,0-1.01,0.34-1.49,1.04
		c-0.57,0.83-0.86,1.8-0.86,2.94v6.34c0,0.8,0.28,1.35,0.83,1.61c0.32,0.15,0.85,0.23,1.58,0.23h0.43c0.23,0,0.35,0.12,0.35,0.37
		c0,0.19-0.08,0.31-0.24,0.36c-0.16,0.05-0.38,0.07-0.65,0.07c-0.5,0-0.91-0.01-1.24-0.03c-1.29-0.08-1.99-0.12-2.13-0.12
		c-0.38,0-0.91,0.02-1.58,0.07c-0.67,0.05-1.07,0.07-1.21,0.07c-0.33,0-0.55-0.02-0.69-0.06c-0.13-0.03-0.2-0.15-0.2-0.36
		c0-0.17,0.07-0.27,0.21-0.32c0.14-0.04,0.33-0.07,0.56-0.07c0.67,0,1.11-0.16,1.32-0.49c0.15-0.23,0.23-0.68,0.23-1.35v-7.9
		c0-0.71-0.1-1.15-0.32-1.31c-0.21-0.16-0.58-0.25-1.09-0.25H93.1c-0.25,0-0.37-0.1-0.37-0.29c0-0.15,0.12-0.29,0.37-0.4
		c0.84-0.37,1.54-0.77,2.12-1.21c0.24-0.19,0.6-0.52,1.06-0.98c0.13-0.13,0.27-0.2,0.4-0.2c0.23,0,0.35,0.15,0.35,0.46
		c0,0.32,0,0.58,0,0.78v1.69c0,0.1,0,0.17,0,0.22c0,0.05,0.01,0.08,0.03,0.1c0.15,0,0.25-0.03,0.29-0.09
		c0.77-0.96,1.36-1.62,1.78-1.98c0.65-0.54,1.34-0.81,2.07-0.81c0.65,0,1.14,0.18,1.46,0.53C102.97,7.92,103.13,8.35,103.13,8.85
		L103.13,8.85z"/>
	<path class="st0" d="M116.4,9.45c-1.53-1.74-3.56-2.62-6.09-2.62c-2.53,0-4.56,0.87-6.1,2.62c-1.34,1.51-2.01,3.25-2.01,5.2
		c0,1.94,0.67,3.66,2.01,5.18c1.53,1.74,3.57,2.61,6.1,2.61c2.51,0,4.54-0.88,6.09-2.64c1.34-1.51,2.01-3.23,2.01-5.15
		C118.41,12.7,117.74,10.96,116.4,9.45z M114.16,19.83c-1.04,1.17-2.34,1.75-3.91,1.75c-1.76,0-3.15-0.74-4.17-2.21
		c-0.88-1.29-1.32-2.87-1.32-4.75c0-1.9,0.45-3.49,1.35-4.77c1.02-1.44,2.4-2.16,4.14-2.16c1.84,0,3.27,0.73,4.29,2.19
		c0.88,1.26,1.32,2.85,1.32,4.74C115.86,16.81,115.29,18.54,114.16,19.83z"/>
	<path class="st0" d="M132.86,19.6c0,0.15-0.11,0.36-0.35,0.61c-0.54,0.61-1.21,1.11-2.01,1.49c-1.03,0.5-2.17,0.75-3.39,0.75
		c-2.2,0-4.03-0.69-5.46-2.07c-1.44-1.38-2.16-3.09-2.16-5.14c0-2.24,0.81-4.2,2.43-5.88c1.62-1.67,3.65-2.52,6.11-2.52
		c0.77,0,1.56,0.1,2.37,0.3c0.81,0.2,1.47,0.5,1.97,0.91c0.15,0.14,0.25,0.24,0.29,0.32c0.04,0.07,0.05,0.24,0.03,0.49l-0.14,1.61
		c0,0.19-0.02,0.37-0.06,0.53c-0.04,0.16-0.17,0.24-0.4,0.24c-0.21,0-0.4-0.11-0.58-0.32c-0.04-0.06-0.18-0.28-0.43-0.66
		c-0.54-0.84-0.97-1.42-1.29-1.73c-0.59-0.56-1.31-0.83-2.16-0.83c-1.4,0-2.65,0.62-3.76,1.87c-1.21,1.34-1.81,2.99-1.81,4.95
		c0,2.07,0.68,3.72,2.04,4.94c1.21,1.09,2.63,1.64,4.26,1.64c0.9,0,1.72-0.18,2.44-0.55c0.33-0.15,0.78-0.47,1.35-0.95
		c0.21-0.17,0.37-0.26,0.49-0.26C132.78,19.34,132.86,19.43,132.86,19.6z"/>
	<path class="st0" d="M14.43,0C6.47,0,0,6.47,0,14.42s6.47,14.42,14.43,14.42c7.95,0,14.42-6.47,14.42-14.42S22.38,0,14.43,0z
		 M21.06,12.89l-8.32,14.35c-0.47-0.06-0.95-0.15-1.43-0.28l8.19-14.07H21.06z M19.31,9.84l-9.61,16.6
		c-3.81-1.51-6.7-4.75-7.75-8.71l4.59-7.9H19.31z M26,13.91h-3.56l1.56-2.7h-3.59l1.69-2.93H5.52l-4,6.93
		c-0.02-0.27-0.03-0.53-0.03-0.79C1.5,7.3,7.3,1.5,14.43,1.5s12.93,5.8,12.93,12.93c0,5.48-3.56,10.43-8.71,12.22L26,13.91z
		 M21.46,15.47h1.57l-6.69,11.72c-0.59,0.09-1.13,0.14-1.64,0.15L21.46,15.47z"/>
</g>
</svg>
