<svg width="508" height="172" version="1.1" xmlns="http://www.w3.org/2000/svg"><g id="Page-1" stroke="none" stroke-width="1" fill="none" fill-rule="evenodd"><g id="logo-abet-laminati-originale" transform="translate(1)"><g id="Group"><path d="M.896 1.036v115.286M356.688 1.036v115.286" id="Shape" stroke="#007DC3" stroke-width="1.979"/><path d="M43.215 38.993L32.288 2.417c-.259-.834-.885-1.207-1.962-1.207h-8.038c-1.078 0-1.704.373-1.966 1.207L9.395 38.993c-.359 1.016.047 1.316.825 1.316l5.815-.025c.708 0 .839 0 1.236-.889l1.587-5.222c.269-.829.716-1.394 1.72-1.394h11.456c1.001 0 1.442.564 1.714 1.394l1.592 5.222c.392.889.529.889 1.237.889l5.814.025c.779.001 1.187-.3.824-1.316M30.386 25.796h-8.123c-.718 0-.733-.743-.566-1.205l3.645-12.968c.782-2.797 1.16-2.797 1.958.047l3.631 12.926c.168.462.173 1.2-.545 1.2m163.363 13.197L182.827 2.417c-.262-.834-.888-1.207-1.971-1.207h-8.032c-1.078 0-1.709.373-1.963 1.207l-10.927 36.576c-.363 1.016.04 1.316.822 1.316l5.81-.025c.708 0 .845 0 1.242-.889l1.587-5.222c.269-.829.718-1.394 1.714-1.394h11.461c.998 0 1.445.564 1.715 1.394l1.592 5.222c.393.889.529.889 1.236.889l5.811.025c.783.001 1.19-.3.825-1.316m-12.825-13.197h-8.125c-.718 0-.733-.743-.564-1.205l3.643-12.968c.782-2.797 1.16-2.797 1.96.047l3.631 12.926c.166.462.171 1.2-.545 1.2M316.01 38.993L305.081 2.417c-.259-.834-.885-1.207-1.968-1.207h-8.027c-1.083 0-1.709.373-1.968 1.207l-10.929 36.576c-.358 1.016.049 1.316.823 1.316l5.817-.025c.705 0 .84 0 1.237-.889l1.584-5.222c.272-.829.721-1.394 1.725-1.394h11.455c.999 0 1.446.564 1.709 1.394l1.596 5.222c.393.889.531.889 1.236.889l5.812.025c.783.001 1.19-.3.827-1.316m-12.826-13.197h-8.128c-.715 0-.729-.743-.565-1.205l3.646-12.968c.785-2.797 1.157-2.797 1.958.047l3.631 12.926c.168.462.173 1.2-.542 1.2M66.609 17.303c0-.772 2.797-1.637 2.797-6.761 0-5.117-5.519-9.33-9.059-9.33H47.436c-1.358 0-1.553.144-1.553 1.451l-.01 35.992c0 1.051.005 1.632 1.418 1.632h18.772c1.816 0 9.126-2.072 9.126-11.086.002-9.762-8.58-10.815-8.58-11.898zM52.416 8.406c0-.636.069-.723.502-.723h4.857c.738 0 4.549.397 4.549 3.96 0 3.554-4.142 4.049-4.646 4.049h-4.734c-.528 0-.528-.058-.528-.673V8.406zm8.326 24.988H53.27c-.834 0-.834-.082-.834-.966v-9.009c0-.917.112-1.039.797-1.039h7.668c1.16 0 7.179.569 7.179 5.656s-6.533 5.358-7.338 5.358zM79.63 1.234h19.158c.932 0 1.45.355 1.12 1.185-.33.825-2.126 4.305-2.51 4.914-.387.611-1.022.581-1.704.581h-9.645c-.676 0-1.359.193-1.359.909v5.775c0 .713.126 1.369.991 1.369h9.916c.713 0 1.409.064 1.409.927v3.904c0 .668-.209.969-.961.969H85.569c-.512 0-1.006.428-1.006 1.215v9.275c0 .788.621 1.336 1.339 1.336h16.908c.79 0 1.35.559 1.35 1.349v3.994c0 1.113-.713 1.316-1.319 1.316H79.114c-.721 0-1.276-.156-1.276-1.276V2.191c.001-.825.617-.957 1.792-.957" id="Shape" fill="#0A7EC2"/><path d="M119.792 7.872h7.291c.932 0 1.451-.355 1.118-1.186-.325-.824-2.126-4.299-2.507-4.915-.388-.609-1.022-.579-1.703-.579h-19.328c-.682 0-1.316-.03-1.704.579-.385.616-2.182 4.091-2.511 4.915-.328.83.187 1.186 1.122 1.186h7.576c1.012 0 1.292.176 1.292 1.363v29.698c0 1.098.122 1.358.957 1.358h5.646c.917 0 1.155-.112 1.155-1.358V9.235c-.001-1.1.345-1.363 1.596-1.363m208.519 0h7.293c.93 0 1.445-.355 1.113-1.186-.323-.824-2.117-4.299-2.504-4.915-.388-.609-1.022-.579-1.704-.579h-19.33c-.676 0-1.312-.03-1.698.579-.389.616-2.187 4.091-2.515 4.915-.328.83.188 1.186 1.123 1.186h7.575c1.009 0 1.292.176 1.292 1.363v29.698c0 1.098.124 1.358.959 1.358h5.644c.914 0 1.152-.112 1.152-1.358V9.235c0-1.1.348-1.363 1.6-1.363m-181.876 24.28V2.454c0-1.1-.116-1.358-.949-1.358h-5.652c-.914 0-1.155.111-1.155 1.358v36.693c0 1.053.266 1.137 1.858 1.137h14.232c1.078 0 1.897.14 2.243-.772.348-.914 1.008-3.977 1.155-4.622.244-1.043.097-1.217-1.765-1.217h-7.591c-1.271-.001-2.376-.235-2.376-1.521M246.13 2.509c0-1.098-.383-1.358-1.217-1.358h-5.093c-.913 0-1.447.111-1.447 1.358v36.454c0 1.103.385 1.359 1.22 1.359h5.092c.917 0 1.451-.107 1.451-1.359l-.006-36.454m100.611 0c0-1.098-.377-1.358-1.223-1.358h-5.087c-.914 0-1.45.111-1.45 1.358l.005 36.454c0 1.103.383 1.359 1.218 1.359h5.087c.919 0 1.45-.107 1.45-1.359V2.509M218.678 38.652c.36-1.16 4.806-17.179 5.3-19.521.335-1.597 1.48-1.597 1.48-.07v19.901l.005.005c0 1.098.377 1.347 1.209 1.347h5.092c.922 0 1.456-.102 1.456-1.347V2.577c0-1.453-.748-1.453-2.271-1.453h-6.559c-.999 0-1.612.196-1.96 1.361-.345 1.16-6.205 19.663-6.622 21.28-.417 1.612-1.635 1.649-2.136.024-.417-1.612-6.279-20.112-6.625-21.272-.346-1.165-.961-1.363-1.958-1.363h-6.558c-1.527 0-2.275 0-2.275 1.45l.005 36.362c0 1.098.382 1.282 1.217 1.282h5.092c.917 0 1.451-.038 1.451-1.282V19.065c0-1.525 1.144-1.525 1.48.072.487 2.335 4.933 18.354 5.301 19.519.36 1.16.486 1.593 1.356 1.593h5.235c.999.001 1.285-1.597 1.285-1.597M279.67 2.623v36.111s-.283 1.598-1.281 1.598h-7.277c-.874 0-1.432-.788-2.013-1.913-.581-1.128-7.675-17.407-8.224-19.193-.566-1.831-1.965-1.602-1.965-.077V39.05c0 1.247-.534 1.282-1.456 1.282h-4.852c-.834 0-1.217-.182-1.217-1.282V2.606c0-1.448.743-1.448 2.271-1.448h6.555c.999 0 1.615.199 1.96 1.356.346 1.168 7.312 17.914 7.723 19.531.801 2.176 1.963 1.603 1.963-.219 0-1.825.05-17.969.05-19.342 0-1.369.969-1.359 1.968-1.359h4.382c1.101 0 1.413.189 1.413 1.498" id="Shape" fill="#0A7EC2"/><path id="Rectangle-path" fill="#0A7EC2" d="M370.08.895h30.2v115.198h-30.2zm42.878 0h21.993v115.198h-21.993zm43.245 0h11.188v115.198h-11.188zm44.746 0h5.311v115.198h-5.311z"/><path d="M3.629 2.234V15.07c0 .65.09 1.326.268 2.025.179.701.474 1.348.889 1.939a4.844 4.844 0 001.625 1.451c.671.371 1.5.561 2.486.561.985 0 1.812-.188 2.482-.561a4.9 4.9 0 001.63-1.451c.412-.592.71-1.238.884-1.939.181-.699.27-1.375.27-2.025V2.234h2.842v13.283c0 1.223-.209 2.33-.621 3.322a7.854 7.854 0 01-1.719 2.588 7.582 7.582 0 01-2.573 1.689c-.985.393-2.052.586-3.193.586-1.146 0-2.208-.193-3.194-.586a7.573 7.573 0 01-2.573-1.689 7.849 7.849 0 01-1.717-2.588C1 17.847.794 16.737.794 15.517V2.234h2.835zm17.692 6.92h2.662v2.16h.055c.338-.75.919-1.355 1.749-1.818.824-.467 1.783-.695 2.866-.695.671 0 1.315.102 1.938.309a4.374 4.374 0 011.63.965c.462.432.829.986 1.107 1.67.278.68.412 1.482.412 2.414v9.02h-2.657v-8.285c0-.646-.09-1.209-.27-1.67-.179-.467-.411-.84-.71-1.123a2.662 2.662 0 00-1.019-.625 3.879 3.879 0 00-1.202-.188c-.552 0-1.062.088-1.535.268-.473.174-.89.457-1.242.84-.356.383-.631.873-.829 1.465-.198.592-.293 1.293-.293 2.098v7.223h-2.662V9.154zM37.973.812h2.662v22.365h-2.662V.812zm6.477 3.314c0-.533.193-.99.576-1.377a1.877 1.877 0 011.376-.576c.531 0 .994.189 1.377.576.387.387.576.844.576 1.377 0 .531-.189.988-.576 1.375a1.886 1.886 0 01-1.377.576c-.531 0-.988-.193-1.376-.576a1.893 1.893 0 01-.576-1.375zm.622 5.028h2.663v14.023h-2.663V9.154zm6.89 0h2.483v2.189h.06c.061-.199.214-.445.457-.74.249-.293.566-.576.949-.844.383-.264.84-.492 1.361-.682.521-.189 1.098-.277 1.729-.277 1.049 0 1.923.219 2.633.646.711.438 1.292 1.088 1.744 1.957.457-.869 1.098-1.521 1.928-1.957.824-.428 1.664-.646 2.515-.646 1.083 0 1.972.178 2.663.531.686.354 1.23.82 1.624 1.406a5.37 5.37 0 01.813 1.977c.146.746.219 1.51.219 2.295v8.168h-2.656v-7.811c0-.535-.035-1.047-.104-1.539a3.58 3.58 0 00-.433-1.303 2.42 2.42 0 00-.914-.904c-.397-.223-.919-.336-1.57-.336-1.281 0-2.195.395-2.752 1.182-.551.789-.824 1.809-.824 3.051v7.66h-2.663v-7.338c0-.67-.034-1.281-.104-1.834-.069-.555-.208-1.033-.412-1.436a2.345 2.345 0 00-.889-.949c-.384-.225-.904-.336-1.557-.336-.472 0-.929.094-1.371.275a3.343 3.343 0 00-1.172.846c-.333.379-.602.854-.795 1.436-.199.582-.298 1.268-.298 2.059v7.277h-2.663l-.001-14.023zm24.789-5.028c0-.533.189-.99.577-1.377a1.865 1.865 0 011.376-.576c.531 0 .988.189 1.376.576.382.387.576.844.576 1.377 0 .531-.194.988-.576 1.375a1.892 1.892 0 01-1.376.576 1.88 1.88 0 01-1.376-.576 1.87 1.87 0 01-.577-1.375zm.621 5.028h2.663v14.023h-2.663V9.154zm14.408 2.308h-3.82v6.359c0 .393.01.785.029 1.168.021.383.095.729.224 1.039.13.303.328.545.592.734.269.188.655.283 1.167.283.318 0 .642-.031.979-.09.333-.061.641-.164.914-.324v2.426c-.312.18-.721.299-1.228.367-.502.07-.89.104-1.168.104-1.022 0-1.817-.145-2.379-.434-.562-.283-.979-.654-1.242-1.102a3.58 3.58 0 01-.477-1.531c-.05-.557-.07-1.121-.07-1.699v-7.303h-3.08V9.15h3.08V5.218h2.658V9.15h3.82v2.312h.001zm5.439 5.68c0 .611.135 1.166.397 1.668.269.504.616.936 1.054 1.287a4.71 4.71 0 001.505.83 5.556 5.556 0 001.778.293c.825 0 1.545-.188 2.156-.576a6.997 6.997 0 001.688-1.52l2.012 1.539c-1.479 1.908-3.552 2.867-6.215 2.867-1.104 0-2.105-.189-3.001-.562-.898-.377-1.659-.895-2.279-1.555a6.833 6.833 0 01-1.432-2.336 8.2 8.2 0 01-.507-2.916c0-1.043.185-2.018.552-2.91a7.139 7.139 0 011.505-2.336 6.796 6.796 0 012.296-1.555 7.395 7.395 0 012.896-.562c1.242 0 2.296.219 3.15.646.858.438 1.563 1.004 2.115 1.705a6.636 6.636 0 011.197 2.367c.248.875.372 1.771.372 2.676v.947H97.217v.003h.002zm8.4-2.131a5.667 5.667 0 00-.283-1.631 3.556 3.556 0 00-.75-1.281 3.427 3.427 0 00-1.257-.857c-.507-.205-1.093-.314-1.764-.314a4.39 4.39 0 00-3.164 1.332 4.392 4.392 0 00-.869 1.322 3.556 3.556 0 00-.313 1.43h8.4v-.001zm20.086 8.166h-2.663v-2.018h-.06c-.513.756-1.218 1.332-2.116 1.75a6.495 6.495 0 01-2.764.621c-1.088 0-2.065-.189-2.944-.562a6.557 6.557 0 01-2.246-1.568 7.03 7.03 0 01-1.437-2.336c-.338-.891-.502-1.854-.502-2.9 0-1.043.164-2.018.502-2.912a6.777 6.777 0 011.437-2.334 6.497 6.497 0 012.246-1.555c.879-.373 1.856-.562 2.944-.562 1.005 0 1.953.209 2.838.635.89.424 1.568 1.004 2.042 1.73h.06V.812h2.663v22.365zm-7.278-2.131c.71 0 1.353-.125 1.923-.373a4.152 4.152 0 001.45-1.004c.394-.426.7-.934.919-1.539a5.81 5.81 0 00.323-1.967 5.88 5.88 0 00-.323-1.969 4.516 4.516 0 00-.919-1.535 4.326 4.326 0 00-1.45-1.008c-.57-.248-1.213-.367-1.923-.367s-1.352.119-1.923.367a4.336 4.336 0 00-1.45 1.008c-.393.424-.7.939-.914 1.535a5.746 5.746 0 00-.328 1.969c0 .709.109 1.371.328 1.967.214.605.521 1.113.914 1.539.397.428.879.762 1.45 1.004.571.248 1.213.373 1.923.373zm26.98-8.371a4.114 4.114 0 00-1.173-.994c-.462-.268-1.028-.395-1.698-.395-.632 0-1.178.129-1.64.395-.468.27-.695.656-.695 1.174 0 .412.129.744.396 1.004a3.1 3.1 0 00.948.619c.363.16.75.273 1.168.355.412.078.771.148 1.062.207.57.141 1.107.309 1.614.508.502.193.935.447 1.302.766.362.316.65.699.854 1.152.208.457.312 1.008.312 1.658 0 .785-.169 1.461-.502 2.027a4.264 4.264 0 01-1.303 1.371 5.505 5.505 0 01-1.822.773 9.296 9.296 0 01-2.053.234c-1.167 0-2.186-.18-3.063-.531-.875-.359-1.659-1.004-2.352-1.953l2.014-1.654c.432.428.914.814 1.449 1.152.531.332 1.184.502 1.952.502.333 0 .677-.035 1.02-.104.343-.069.65-.18.919-.328.264-.148.481-.332.65-.557.164-.229.248-.49.248-.783 0-.398-.124-.727-.366-.98a2.727 2.727 0 00-.891-.604 6.183 6.183 0 00-1.093-.354c-.388-.09-.726-.164-1.023-.225a17.891 17.891 0 01-1.625-.473 4.929 4.929 0 01-1.359-.715 3.179 3.179 0 01-.944-1.123c-.238-.453-.356-1.014-.356-1.686 0-.729.153-1.365.457-1.906.308-.541.71-.988 1.212-1.348a5.461 5.461 0 011.719-.795 7.219 7.219 0 014.662.263c.864.354 1.555.949 2.065 1.773l-2.065 1.575zm7.691 4.467c0 .611.129 1.166.397 1.668.263.504.616.936 1.048 1.287a4.8 4.8 0 001.51.83 5.513 5.513 0 001.774.293c.829 0 1.55-.188 2.161-.576a6.927 6.927 0 001.684-1.52l2.012 1.539c-1.479 1.908-3.547 2.867-6.209 2.867-1.107 0-2.106-.189-3.006-.562a6.586 6.586 0 01-2.274-1.555 6.922 6.922 0 01-1.437-2.336 8.31 8.31 0 01-.502-2.916c0-1.043.184-2.018.547-2.91a7.151 7.151 0 011.51-2.336 6.82 6.82 0 012.29-1.555 7.424 7.424 0 012.901-.562c1.242 0 2.29.219 3.149.646.858.438 1.56 1.004 2.115 1.705a6.702 6.702 0 011.197 2.367 9.94 9.94 0 01.368 2.676v.947h-11.236v.003h.001zm8.4-2.131a5.667 5.667 0 00-.283-1.631 3.581 3.581 0 00-.755-1.281 3.386 3.386 0 00-1.257-.857c-.502-.205-1.088-.314-1.759-.314-.651 0-1.247.131-1.788.373a4.272 4.272 0 00-1.377.959 4.447 4.447 0 00-.874 1.322 3.567 3.567 0 00-.309 1.43h8.402v-.001zm6.24-14.199h2.663v22.365h-2.663V.812zm8.902 16.33c0 .611.136 1.166.397 1.668.269.504.616.936 1.054 1.287.434.357.935.637 1.505.83a5.56 5.56 0 001.778.293c.825 0 1.546-.188 2.156-.576a6.979 6.979 0 001.688-1.52l2.013 1.539c-1.48 1.908-3.553 2.867-6.216 2.867-1.103 0-2.105-.189-3.001-.562a6.584 6.584 0 01-2.278-1.555 6.835 6.835 0 01-1.433-2.336 8.222 8.222 0 01-.506-2.916c0-1.043.185-2.018.551-2.91a7.144 7.144 0 011.507-2.336 6.763 6.763 0 012.295-1.555 7.388 7.388 0 012.896-.562c1.242 0 2.295.219 3.149.646.858.438 1.563 1.004 2.115 1.705a6.62 6.62 0 011.197 2.367 9.79 9.79 0 01.373 2.676v.947h-11.24v.003zm8.401-2.131a5.667 5.667 0 00-.283-1.631 3.585 3.585 0 00-.75-1.281 3.43 3.43 0 00-1.258-.857c-.506-.205-1.093-.314-1.763-.314a4.39 4.39 0 00-3.165 1.332 4.411 4.411 0 00-.869 1.322 3.556 3.556 0 00-.313 1.43h8.401v-.001zm16.061-2.127a5.526 5.526 0 00-1.55-1.172c-.546-.27-1.191-.396-1.938-.396-.73 0-1.366.129-1.912.396-.542.27-.994.635-1.356 1.092a4.969 4.969 0 00-.83 1.602 6.257 6.257 0 00-.282 1.877c0 .65.108 1.271.328 1.85.214.586.521 1.092.913 1.523a4.22 4.22 0 001.422 1.02c.552.248 1.173.373 1.862.373.75 0 1.392-.135 1.922-.402.537-.264 1.028-.656 1.48-1.168l1.894 1.893a5.995 5.995 0 01-2.409 1.66 8.51 8.51 0 01-2.916.502c-1.083 0-2.071-.18-2.972-.531a6.903 6.903 0 01-2.319-1.496 6.551 6.551 0 01-1.511-2.311c-.356-.895-.53-1.889-.53-2.971 0-1.084.174-2.076.53-2.984a6.839 6.839 0 011.495-2.34 6.847 6.847 0 012.307-1.521c.897-.367 1.896-.547 3-.547 1.027 0 2.007.18 2.945.547a6.555 6.555 0 012.438 1.668l-2.011 1.836zm11.744-1.422h-3.814v6.359c0 .393.01.785.029 1.168.021.383.095.729.225 1.039.124.303.322.545.591.734.264.188.656.283 1.168.283.312 0 .641-.031.974-.09a2.82 2.82 0 00.92-.324v2.426c-.318.18-.727.299-1.229.367-.502.07-.894.104-1.167.104-1.028 0-1.823-.145-2.385-.434-.562-.283-.975-.654-1.242-1.102a3.659 3.659 0 01-.472-1.531 18.595 18.595 0 01-.074-1.699v-7.303h-3.075V9.15h3.075V5.218h2.662V9.15h3.814v2.312zm3.016-7.336c0-.533.192-.99.576-1.377a1.876 1.876 0 011.375-.576c.532 0 .994.189 1.377.576.388.387.575.844.575 1.377 0 .531-.188.988-.575 1.375a1.885 1.885 0 01-1.377.576c-.53 0-.987-.193-1.375-.576a1.885 1.885 0 01-.576-1.375zm.621 5.028h2.661v14.023h-2.661V9.154zm6.215 7.01c0-1.023.188-1.979.576-2.867a7.475 7.475 0 011.58-2.34 7.418 7.418 0 012.368-1.58c.904-.387 1.884-.576 2.927-.576 1.049 0 2.021.189 2.932.576a7.456 7.456 0 012.364 1.58 7.61 7.61 0 011.585 2.34c.383.889.576 1.844.576 2.867a7.275 7.275 0 01-2.161 5.225 7.572 7.572 0 01-2.364 1.566 7.462 7.462 0 01-2.932.576 7.448 7.448 0 01-2.927-.576 7.55 7.55 0 01-2.368-1.566 7.21 7.21 0 01-1.58-2.34 7.189 7.189 0 01-.576-2.885zm2.835 0c0 .709.108 1.371.328 1.967.214.605.521 1.113.914 1.539.396.428.88.762 1.45 1.004.571.248 1.212.373 1.923.373.711 0 1.352-.125 1.923-.373a4.161 4.161 0 001.45-1.004 4.5 4.5 0 00.92-1.539 5.835 5.835 0 00.321-1.967c0-.707-.108-1.361-.321-1.969a4.55 4.55 0 00-.92-1.535 4.336 4.336 0 00-1.45-1.008c-.571-.248-1.212-.367-1.923-.367-.711 0-1.352.119-1.923.367a4.336 4.336 0 00-1.45 1.008c-.394.424-.7.939-.914 1.535a5.778 5.778 0 00-.328 1.969zm15.416-7.01h2.662v2.16h.055c.338-.75.92-1.355 1.749-1.818.825-.467 1.783-.695 2.866-.695.671 0 1.315.102 1.938.309a4.366 4.366 0 011.63.965c.462.432.829.986 1.107 1.67.278.68.413 1.482.413 2.414v9.02h-2.658v-8.285c0-.646-.09-1.209-.269-1.67-.18-.467-.412-.84-.71-1.123a2.659 2.659 0 00-1.02-.625 3.879 3.879 0 00-1.202-.188c-.552 0-1.062.088-1.535.268-.472.174-.89.457-1.241.84-.357.383-.631.873-.829 1.465-.199.592-.294 1.293-.294 2.098v7.223h-2.662V9.154z" transform="translate(253 148)" id="Shape" fill="#007DC3"/></g></g></g></svg>